<svg width="167" height="167" viewBox="0 0 167 167" fill="none" xmlns="http://www.w3.org/2000/svg">
<path d="M160.73 12.36H6.18C2.77 12.36 0 9.59 0 6.18C0 2.77 2.77 0 6.18 0H160.73C164.14 0 166.91 2.77 166.91 6.18C166.91 9.59 164.14 12.36 160.73 12.36Z" fill="#0086FF"/>
<path d="M160.73 166.91C157.32 166.91 154.55 164.14 154.55 160.73C154.55 159.25 153.68 12.36 83.4598 12.36C54.6598 12.36 33.9398 36.72 21.8898 84.76C12.4898 122.22 12.3698 160.34 12.3698 160.72C12.3698 164.13 9.59977 166.9 6.18977 166.9C2.77977 166.9 0.00976562 164.13 0.00976562 160.72C0.00976562 159.11 0.119766 120.87 9.84977 81.95C23.2498 28.34 48.6998 0 83.4598 0C118.22 0 143.67 28.34 157.07 81.96C166.8 120.89 166.91 159.12 166.91 160.73C166.91 164.14 164.14 166.91 160.73 166.91Z" fill="#FF00DB"/>
</svg>
